# xmcd
#
# Track frame offsets:
#	150
#	15542
#	32434
#	53431
#	66254
#	82751
#	98563
#	123781
#	139983
#	152132
#	165544
#	184525
#	199592
#	217797
#
# Disc length: 3072 seconds
#
# Revision: 1
# Processed by: cddbd v1.5.2PL0 Copyright (c) Steve Scherf et al.
# Submitted via: audiograbber 1.83.01
#
DISCID=a00bfe0e
DTITLE=Sound Choice 7515 - Sound Choice
DYEAR=1900
DGENRE=Coountry
TTITLE0=Lee Greenwood - God Bless the USA
TTITLE1=George Strait - I Cross My Heart
TTITLE2=John Michael Montgomery  - I Swear
TTITLE3=Patsy Cline - Sweet Dreams
TTITLE4=Billy Rae Cyrus - Achy Breaky Hear
TTITLE5=Brooks and Dunn - Boot Scoot Boogie
TTITLE6=David Allen Coe - You Never Even Called My by my name
TTITLE7=Jennie C Riley - Harper Valley PTA
TTITLE8=Alan Jackson - Chatahoochee
TTITLE9=Patsy Cline - Crazy
TTITLE10=Eddie Rabbit /Crystal Gale - You and I
TTITLE11=Patsy Cline - She's Got You
TTITLE12=Joe Cocker - We've Got Tonight
TTITLE13=Trisha Yearwood - That's What I like about you
EXTD=
EXTT0=
EXTT1=
EXTT2=
EXTT3=
EXTT4=
EXTT5=
EXTT6=
EXTT7=
EXTT8=
EXTT9=
EXTT10=
EXTT11=
EXTT12=
EXTT13=
PLAYORDER=
